<mxfile host="Electron" modified="2023-12-26T22:36:33.042Z" agent="Mozilla/5.0 (Windows NT 10.0; Win64; x64) AppleWebKit/537.36 (KHTML, like Gecko) draw.io/21.2.8 Chrome/112.0.5615.165 Electron/24.2.0 Safari/537.36" etag="crrlGOwXsmrufcYDZr8o" version="21.2.8" type="device">
  <diagram name="Page-1" id="74e2e168-ea6b-b213-b513-2b3c1d86103e">
    <mxGraphModel dx="1909" dy="1144" grid="1" gridSize="10" guides="1" tooltips="1" connect="1" arrows="1" fold="1" page="1" pageScale="1" pageWidth="1100" pageHeight="850" background="none" math="0" shadow="0">
      <root>
        <mxCell id="0" />
        <mxCell id="1" parent="0" />
        <mxCell id="VQIr3-ocTBxnPmS4bD9N-47" style="edgeStyle=orthogonalEdgeStyle;rounded=0;orthogonalLoop=1;jettySize=auto;html=1;exitX=0.5;exitY=1;exitDx=0;exitDy=0;" edge="1" parent="1" source="VQIr3-ocTBxnPmS4bD9N-16" target="VQIr3-ocTBxnPmS4bD9N-45">
          <mxGeometry relative="1" as="geometry" />
        </mxCell>
        <mxCell id="VQIr3-ocTBxnPmS4bD9N-16" value="цвет=цвет фона&lt;br style=&quot;border-color: var(--border-color);&quot;&gt;ближайший_объект=null" style="rounded=0;whiteSpace=wrap;html=1;" vertex="1" parent="1">
          <mxGeometry x="895" y="650" width="190" height="70" as="geometry" />
        </mxCell>
        <mxCell id="VQIr3-ocTBxnPmS4bD9N-37" style="edgeStyle=orthogonalEdgeStyle;rounded=0;orthogonalLoop=1;jettySize=auto;html=1;exitX=0;exitY=0.5;exitDx=0;exitDy=0;exitPerimeter=0;" edge="1" parent="1" source="VQIr3-ocTBxnPmS4bD9N-17" target="VQIr3-ocTBxnPmS4bD9N-25">
          <mxGeometry relative="1" as="geometry">
            <Array as="points">
              <mxPoint x="1050" y="1078" />
              <mxPoint x="1050" y="1170" />
              <mxPoint x="983" y="1170" />
              <mxPoint x="983" y="1240" />
              <mxPoint x="1143" y="1240" />
            </Array>
          </mxGeometry>
        </mxCell>
        <mxCell id="VQIr3-ocTBxnPmS4bD9N-58" style="edgeStyle=orthogonalEdgeStyle;rounded=0;orthogonalLoop=1;jettySize=auto;html=1;exitX=1;exitY=0.5;exitDx=0;exitDy=0;exitPerimeter=0;" edge="1" parent="1" source="VQIr3-ocTBxnPmS4bD9N-17" target="VQIr3-ocTBxnPmS4bD9N-50">
          <mxGeometry relative="1" as="geometry" />
        </mxCell>
        <mxCell id="VQIr3-ocTBxnPmS4bD9N-17" value="Расстояние до объекта &lt;br&gt;меньше чем до &lt;br&gt;ближайшего объекта?" style="strokeWidth=2;html=1;shape=mxgraph.flowchart.decision;whiteSpace=wrap;" vertex="1" parent="1">
          <mxGeometry x="1080" y="1030" width="210" height="95" as="geometry" />
        </mxCell>
        <mxCell id="VQIr3-ocTBxnPmS4bD9N-52" style="edgeStyle=orthogonalEdgeStyle;rounded=0;orthogonalLoop=1;jettySize=auto;html=1;exitX=0.5;exitY=0;exitDx=0;exitDy=0;" edge="1" parent="1" source="VQIr3-ocTBxnPmS4bD9N-25" target="VQIr3-ocTBxnPmS4bD9N-51">
          <mxGeometry relative="1" as="geometry" />
        </mxCell>
        <mxCell id="VQIr3-ocTBxnPmS4bD9N-25" value="Конец цикла по всем объектам сцены" style="shape=loopLimit;whiteSpace=wrap;html=1;direction=west;" vertex="1" parent="1">
          <mxGeometry x="1050" y="1268.5" width="185" height="70" as="geometry" />
        </mxCell>
        <mxCell id="VQIr3-ocTBxnPmS4bD9N-27" style="edgeStyle=orthogonalEdgeStyle;rounded=0;orthogonalLoop=1;jettySize=auto;html=1;exitX=0;exitY=0.5;exitDx=0;exitDy=0;exitPerimeter=0;" edge="1" parent="1" source="VQIr3-ocTBxnPmS4bD9N-26" target="VQIr3-ocTBxnPmS4bD9N-25">
          <mxGeometry relative="1" as="geometry">
            <Array as="points">
              <mxPoint x="865" y="998" />
              <mxPoint x="865" y="1170" />
              <mxPoint x="983" y="1170" />
              <mxPoint x="983" y="1240" />
              <mxPoint x="1143" y="1240" />
            </Array>
          </mxGeometry>
        </mxCell>
        <mxCell id="VQIr3-ocTBxnPmS4bD9N-41" style="edgeStyle=orthogonalEdgeStyle;rounded=0;orthogonalLoop=1;jettySize=auto;html=1;exitX=1;exitY=0.5;exitDx=0;exitDy=0;exitPerimeter=0;entryX=0.5;entryY=0;entryDx=0;entryDy=0;entryPerimeter=0;" edge="1" parent="1" source="VQIr3-ocTBxnPmS4bD9N-26" target="VQIr3-ocTBxnPmS4bD9N-17">
          <mxGeometry relative="1" as="geometry" />
        </mxCell>
        <mxCell id="VQIr3-ocTBxnPmS4bD9N-26" value="Луч пересекает&lt;br style=&quot;border-color: var(--border-color);&quot;&gt;объект?" style="strokeWidth=2;html=1;shape=mxgraph.flowchart.decision;whiteSpace=wrap;" vertex="1" parent="1">
          <mxGeometry x="885" y="950" width="210" height="95" as="geometry" />
        </mxCell>
        <mxCell id="VQIr3-ocTBxnPmS4bD9N-46" style="edgeStyle=orthogonalEdgeStyle;rounded=0;orthogonalLoop=1;jettySize=auto;html=1;exitX=0.5;exitY=1;exitDx=0;exitDy=0;" edge="1" parent="1" source="VQIr3-ocTBxnPmS4bD9N-43" target="VQIr3-ocTBxnPmS4bD9N-16">
          <mxGeometry relative="1" as="geometry" />
        </mxCell>
        <mxCell id="VQIr3-ocTBxnPmS4bD9N-43" value="Цикл по всем пикселям изображения" style="shape=loopLimit;whiteSpace=wrap;html=1;" vertex="1" parent="1">
          <mxGeometry x="895" y="550" width="190" height="70" as="geometry" />
        </mxCell>
        <mxCell id="VQIr3-ocTBxnPmS4bD9N-49" style="edgeStyle=orthogonalEdgeStyle;rounded=0;orthogonalLoop=1;jettySize=auto;html=1;exitX=0.5;exitY=0;exitDx=0;exitDy=0;" edge="1" parent="1" target="VQIr3-ocTBxnPmS4bD9N-26">
          <mxGeometry relative="1" as="geometry">
            <mxPoint x="990" y="920" as="sourcePoint" />
          </mxGeometry>
        </mxCell>
        <mxCell id="VQIr3-ocTBxnPmS4bD9N-48" style="edgeStyle=orthogonalEdgeStyle;rounded=0;orthogonalLoop=1;jettySize=auto;html=1;exitX=0.5;exitY=1;exitDx=0;exitDy=0;" edge="1" parent="1" source="VQIr3-ocTBxnPmS4bD9N-45">
          <mxGeometry relative="1" as="geometry">
            <mxPoint x="990.0588235294117" y="850" as="targetPoint" />
          </mxGeometry>
        </mxCell>
        <mxCell id="VQIr3-ocTBxnPmS4bD9N-45" value="Выпустить луч из камеры через окно просмотра" style="rounded=0;whiteSpace=wrap;html=1;" vertex="1" parent="1">
          <mxGeometry x="895" y="750" width="190" height="70" as="geometry" />
        </mxCell>
        <mxCell id="VQIr3-ocTBxnPmS4bD9N-59" style="edgeStyle=orthogonalEdgeStyle;rounded=0;orthogonalLoop=1;jettySize=auto;html=1;exitX=0.5;exitY=1;exitDx=0;exitDy=0;" edge="1" parent="1" source="VQIr3-ocTBxnPmS4bD9N-50" target="VQIr3-ocTBxnPmS4bD9N-25">
          <mxGeometry relative="1" as="geometry">
            <Array as="points">
              <mxPoint x="1345" y="1240" />
              <mxPoint x="1143" y="1240" />
            </Array>
          </mxGeometry>
        </mxCell>
        <mxCell id="VQIr3-ocTBxnPmS4bD9N-50" value="ближайшим объектом становится текущий объект" style="rounded=0;whiteSpace=wrap;html=1;" vertex="1" parent="1">
          <mxGeometry x="1250" y="1120" width="190" height="70" as="geometry" />
        </mxCell>
        <mxCell id="VQIr3-ocTBxnPmS4bD9N-54" style="edgeStyle=orthogonalEdgeStyle;rounded=0;orthogonalLoop=1;jettySize=auto;html=1;exitX=0.5;exitY=1;exitDx=0;exitDy=0;" edge="1" parent="1" source="VQIr3-ocTBxnPmS4bD9N-51" target="VQIr3-ocTBxnPmS4bD9N-53">
          <mxGeometry relative="1" as="geometry" />
        </mxCell>
        <mxCell id="VQIr3-ocTBxnPmS4bD9N-51" value="Для ближайшего объекта рассчитать цвет на основе диффузного и зеркального отражения" style="rounded=0;whiteSpace=wrap;html=1;" vertex="1" parent="1">
          <mxGeometry x="1047.5" y="1370" width="190" height="70" as="geometry" />
        </mxCell>
        <mxCell id="VQIr3-ocTBxnPmS4bD9N-60" style="edgeStyle=orthogonalEdgeStyle;rounded=0;orthogonalLoop=1;jettySize=auto;html=1;exitX=1;exitY=0.5;exitDx=0;exitDy=0;exitPerimeter=0;" edge="1" parent="1" source="VQIr3-ocTBxnPmS4bD9N-53" target="VQIr3-ocTBxnPmS4bD9N-55">
          <mxGeometry relative="1" as="geometry" />
        </mxCell>
        <mxCell id="VQIr3-ocTBxnPmS4bD9N-66" style="edgeStyle=orthogonalEdgeStyle;rounded=0;orthogonalLoop=1;jettySize=auto;html=1;exitX=0;exitY=0.5;exitDx=0;exitDy=0;exitPerimeter=0;" edge="1" parent="1" source="VQIr3-ocTBxnPmS4bD9N-53" target="VQIr3-ocTBxnPmS4bD9N-64">
          <mxGeometry relative="1" as="geometry">
            <Array as="points">
              <mxPoint x="1010" y="1518" />
              <mxPoint x="1010" y="1760" />
              <mxPoint x="1143" y="1760" />
            </Array>
          </mxGeometry>
        </mxCell>
        <mxCell id="VQIr3-ocTBxnPmS4bD9N-53" value="Встреченный объект&lt;br style=&quot;border-color: var(--border-color);&quot;&gt;может преломлять?" style="strokeWidth=2;html=1;shape=mxgraph.flowchart.decision;whiteSpace=wrap;" vertex="1" parent="1">
          <mxGeometry x="1037.5" y="1470" width="210" height="95" as="geometry" />
        </mxCell>
        <mxCell id="VQIr3-ocTBxnPmS4bD9N-61" style="edgeStyle=orthogonalEdgeStyle;rounded=0;orthogonalLoop=1;jettySize=auto;html=1;exitX=0.5;exitY=1;exitDx=0;exitDy=0;" edge="1" parent="1" source="VQIr3-ocTBxnPmS4bD9N-55" target="VQIr3-ocTBxnPmS4bD9N-57">
          <mxGeometry relative="1" as="geometry" />
        </mxCell>
        <mxCell id="VQIr3-ocTBxnPmS4bD9N-55" value="Выпустить преломленный луч" style="rounded=0;whiteSpace=wrap;html=1;" vertex="1" parent="1">
          <mxGeometry x="1210" y="1560" width="190" height="70" as="geometry" />
        </mxCell>
        <mxCell id="VQIr3-ocTBxnPmS4bD9N-65" style="edgeStyle=orthogonalEdgeStyle;rounded=0;orthogonalLoop=1;jettySize=auto;html=1;exitX=0.5;exitY=1;exitDx=0;exitDy=0;" edge="1" parent="1" source="VQIr3-ocTBxnPmS4bD9N-57" target="VQIr3-ocTBxnPmS4bD9N-64">
          <mxGeometry relative="1" as="geometry" />
        </mxCell>
        <mxCell id="VQIr3-ocTBxnPmS4bD9N-57" value="Перерассчитать цвет с учетом преломленной составляющей&amp;nbsp;" style="rounded=0;whiteSpace=wrap;html=1;" vertex="1" parent="1">
          <mxGeometry x="1210" y="1660" width="190" height="70" as="geometry" />
        </mxCell>
        <mxCell id="VQIr3-ocTBxnPmS4bD9N-63" value="Цкил по всем объектам сцены" style="shape=loopLimit;whiteSpace=wrap;html=1;direction=east;" vertex="1" parent="1">
          <mxGeometry x="895" y="850" width="190" height="70" as="geometry" />
        </mxCell>
        <mxCell id="VQIr3-ocTBxnPmS4bD9N-69" style="edgeStyle=orthogonalEdgeStyle;rounded=0;orthogonalLoop=1;jettySize=auto;html=1;exitX=0.5;exitY=1;exitDx=0;exitDy=0;" edge="1" parent="1" source="VQIr3-ocTBxnPmS4bD9N-64" target="VQIr3-ocTBxnPmS4bD9N-67">
          <mxGeometry relative="1" as="geometry" />
        </mxCell>
        <mxCell id="VQIr3-ocTBxnPmS4bD9N-64" value="Закрасить пиксель полученным цветом" style="rounded=0;whiteSpace=wrap;html=1;" vertex="1" parent="1">
          <mxGeometry x="1047.5" y="1790" width="190" height="70" as="geometry" />
        </mxCell>
        <mxCell id="VQIr3-ocTBxnPmS4bD9N-72" style="edgeStyle=orthogonalEdgeStyle;rounded=0;orthogonalLoop=1;jettySize=auto;html=1;exitX=0.5;exitY=0;exitDx=0;exitDy=0;" edge="1" parent="1" source="VQIr3-ocTBxnPmS4bD9N-67" target="VQIr3-ocTBxnPmS4bD9N-71">
          <mxGeometry relative="1" as="geometry" />
        </mxCell>
        <mxCell id="VQIr3-ocTBxnPmS4bD9N-67" value="Конец цикла по всем пикселям изображения" style="shape=loopLimit;whiteSpace=wrap;html=1;direction=west;" vertex="1" parent="1">
          <mxGeometry x="1047.5" y="1890" width="190" height="70" as="geometry" />
        </mxCell>
        <mxCell id="VQIr3-ocTBxnPmS4bD9N-71" value="Конец" style="rounded=1;whiteSpace=wrap;html=1;arcSize=50;" vertex="1" parent="1">
          <mxGeometry x="1047.5" y="1990" width="190" height="70" as="geometry" />
        </mxCell>
        <mxCell id="VQIr3-ocTBxnPmS4bD9N-74" style="edgeStyle=orthogonalEdgeStyle;rounded=0;orthogonalLoop=1;jettySize=auto;html=1;exitX=0.5;exitY=1;exitDx=0;exitDy=0;" edge="1" parent="1" source="VQIr3-ocTBxnPmS4bD9N-73" target="VQIr3-ocTBxnPmS4bD9N-43">
          <mxGeometry relative="1" as="geometry" />
        </mxCell>
        <mxCell id="VQIr3-ocTBxnPmS4bD9N-73" value="Начало&amp;nbsp;" style="rounded=1;whiteSpace=wrap;html=1;arcSize=50;" vertex="1" parent="1">
          <mxGeometry x="895" y="450" width="190" height="70" as="geometry" />
        </mxCell>
      </root>
    </mxGraphModel>
  </diagram>
</mxfile>
